<svg width="20" height="20" viewBox="0 0 20 20" fill="none" xmlns="http://www.w3.org/2000/svg">
<path d="M19.0993 14.5686L16.1336 12.0468C16.1199 12.0352 16.1054 12.0245 16.0903 12.0149C15.3122 11.5196 14.3132 11.6293 13.6609 12.2815L12.0439 13.8983C11.9319 14.0105 11.7649 14.0436 11.6184 13.9832C9.7925 13.2278 8.29257 12.0908 7.16021 10.6038C6.29672 9.46991 5.98544 8.56888 5.94439 8.44193C5.93951 8.41477 5.93173 8.38776 5.92074 8.36136C5.86016 8.21488 5.89327 8.0481 6.00558 7.9361L7.6224 6.31882C8.27471 5.66651 8.38427 4.66752 7.88897 3.88947C7.885 3.88321 7.88088 3.87711 7.87661 3.87101L5.73489 0.89478C5.06106 -0.150599 3.59332 -0.308528 2.71243 0.57221L2.38864 0.896001C2.38848 0.896306 2.38818 0.896612 2.38787 0.896764L1.23187 2.05277C-0.146613 3.4314 -0.372138 5.50293 0.579858 8.04383C1.39529 10.2203 3.02767 12.6024 5.17626 14.751C7.37566 16.9504 9.82211 18.613 12.0648 19.4325C14.2847 20.2435 16.646 20.3435 18.3173 18.672L19.4075 17.5819C20.2844 16.7049 20.1314 15.2467 19.0993 14.5686ZM15.6496 12.6605L18.6127 15.1802C18.6263 15.1918 18.6408 15.2025 18.6559 15.2121C19.2888 15.6151 19.3846 16.5001 18.855 17.0296L18.7741 17.1106L13.7203 13.3267L14.2133 12.8339C14.5986 12.4484 15.1857 12.3787 15.6496 12.6605ZM5.08227 1.32401C5.08624 1.33027 5.09036 1.33652 5.09463 1.34247L7.23544 4.31763C7.52627 4.78318 7.45898 5.37751 7.07003 5.76645L6.59228 6.24436L3.17309 1.21628L3.26479 1.12458C3.79656 0.592809 4.68081 0.693364 5.08227 1.32401ZM12.3328 18.6987C10.1947 17.9175 7.8493 16.3193 5.72863 14.1986C3.6571 12.1272 2.08834 9.84406 1.31121 7.76978C0.727868 6.21277 0.336481 4.05289 1.78423 2.60529L2.6108 1.77857L6.02999 6.80665L5.45336 7.38358C5.1253 7.71103 5.02215 8.19565 5.18588 8.62717C5.30917 9.13315 5.87649 10.1834 6.44885 10.9573C7.29113 12.0963 8.81991 13.6708 11.3198 14.7051C11.7591 14.8868 12.26 14.787 12.5963 14.4508L13.1623 13.8847L18.2161 17.6686L17.7649 18.1197C16.2129 19.6718 13.9543 19.2912 12.3328 18.6987Z" fill="currentColor"/>
</svg>