<svg width="15" height="15" viewBox="0 0 15 15" fill="none" xmlns="http://www.w3.org/2000/svg">
<path d="M0.625043 4.0625L0.625043 1.56249C0.625043 0.699549 1.32459 -5.70453e-07 2.18753 -5.32733e-07L4.68754 -4.23453e-07C5.57037 0.00251914 6.41658 0.353085 7.04254 0.975613L13.0338 6.96687C13.1579 7.08678 13.1614 7.28459 13.0414 7.40875C12.9215 7.53291 12.7237 7.53634 12.5996 7.41643C12.597 7.41391 12.5944 7.41136 12.5919 7.40875L6.60066 1.4175C6.09215 0.911775 5.4047 0.62701 4.68754 0.624989L2.18756 0.624988C1.6698 0.624988 1.25006 1.04472 1.25006 1.56249L1.25006 4.06247C1.24807 4.78045 1.53345 5.46933 2.04257 5.97558L9.87068 13.8037C10.6326 14.5652 11.8675 14.5652 12.6294 13.8037L13.1788 13.2543C13.9145 12.4819 13.9145 11.268 13.1788 10.4956L6.15877 3.47563C5.93389 3.25186 5.62979 3.12585 5.31253 3.125L4.06253 3.125C3.88994 3.125 3.75002 3.26492 3.75002 3.43751L3.75002 4.68749C3.75092 5.00472 3.87693 5.30882 4.10064 5.53373L9.28375 10.7168C9.40788 10.8367 9.41133 11.0346 9.29142 11.1587C9.17151 11.2828 8.9737 11.2863 8.84954 11.1664C8.84693 11.1639 8.84438 11.1613 8.84186 11.1587L3.65879 5.97561C3.31821 5.63328 3.1264 5.17039 3.12503 4.68749L3.12503 3.43748C3.12503 2.91972 3.54476 2.49998 4.06253 2.49998L5.31253 2.49998C5.79546 2.50122 6.25838 2.69302 6.60066 3.03374L13.6206 10.0537C14.6265 11.0596 14.6265 12.6904 13.6207 13.6962C13.6207 13.6962 13.6207 13.6962 13.6206 13.6962L13.0713 14.2456C12.0654 15.2515 10.4346 15.2515 9.42879 14.2456C9.42879 14.2456 9.42879 14.2456 9.42876 14.2456L1.60066 6.4175C0.974349 5.79406 0.62308 4.94621 0.625043 4.0625Z" fill="currentColor"/>
</svg>
