<svg width="16" height="15" viewBox="0 0 16 15" fill="none" xmlns="http://www.w3.org/2000/svg">
<path d="M7.50002 13.75H1.87499C1.52999 13.75 1.25 13.47 1.25 13.125V1.87502C1.25 1.53001 1.53002 1.25003 1.87499 1.25003H7.50002C7.84564 1.25003 8.125 0.970666 8.125 0.625045C8.125 0.279424 7.84564 0 7.50002 0H1.87499C0.841242 0 0 0.841272 0 1.87502V13.125C0 14.1588 0.841242 15 1.87499 15H7.50002C7.84564 15 8.125 14.7206 8.125 14.375C8.125 14.0294 7.84564 13.75 7.50002 13.75Z" fill="currentColor"/>
<path d="M14.8641 7.05494L11.0641 3.30493C10.8191 3.06243 10.4228 3.06557 10.1803 3.31119C9.93781 3.55682 9.94031 3.95244 10.1866 4.19494L12.9022 6.87493H5.62532C5.2797 6.87493 5.00034 7.1543 5.00034 7.49992C5.00034 7.84554 5.2797 8.12493 5.62532 8.12493H12.9022L10.1866 10.8049C9.94034 11.0474 9.93846 11.443 10.1803 11.6887C10.3028 11.8124 10.4641 11.8749 10.6253 11.8749C10.7841 11.8749 10.9428 11.8149 11.0641 11.6949L14.8641 7.94489C14.9828 7.8274 15.0503 7.66738 15.0503 7.49989C15.0503 7.33246 14.9834 7.17308 14.8641 7.05494Z" fill="currentColor"/>
</svg>
